<?xml version="1.0" standalone="no"?>
<!DOCTYPE svg PUBLIC "-//W3C//DTD SVG 20010904//EN"
 "http://www.w3.org/TR/2001/REC-SVG-20010904/DTD/svg10.dtd">
<svg version="1.0" xmlns="http://www.w3.org/2000/svg"
 width="900.000000pt" height="900.000000pt" viewBox="0 0 900.000000 900.000000"
 preserveAspectRatio="xMidYMid meet">
<metadata>
Created by potrace 1.11, written by Peter Selinger 2001-2013
</metadata>
<g transform="translate(0.000000,900.000000) scale(0.100000,-0.100000)"
fill="#000000" stroke="none">
<path d="M4228 6933 c23 -2 61 -2 85 0 23 2 4 4 -43 4 -47 0 -66 -2 -42 -4z"/>
<path d="M4646 6525 c-132 -36 -271 -140 -340 -254 -75 -123 -100 -262 -71
-402 24 -123 66 -200 155 -290 117 -119 236 -169 400 -169 200 0 371 93 480
262 206 317 32 757 -336 853 -71 18 -220 18 -288 0z"/>
<path d="M3171 6254 c-74 -20 -176 -75 -237 -128 -188 -165 -240 -465 -121
-691 66 -125 197 -231 337 -276 76 -25 228 -29 300 -10 160 44 307 163 372
302 43 90 58 156 58 257 0 255 -177 482 -426 547 -72 19 -211 18 -283 -1z"/>
<path d="M6172 5983 c262 -352 420 -760 467 -1208 22 -206 3 -497 -48 -730
-193 -885 -894 -1593 -1777 -1794 -231 -52 -264 -56 -539 -56 -277 0 -321 5
-537 55 -338 80 -681 245 -935 452 -39 32 -73 58 -76 58 -3 0 34 -37 81 -82
47 -46 628 -626 1292 -1289 l1208 -1206 70 13 c516 98 1094 338 1554 647 891
599 1531 1483 1804 2492 28 106 28 105 9 105 -8 0 -15 8 -15 18 0 11 -11 24
-24 30 -13 6 -27 20 -31 32 -3 11 -11 18 -16 15 -5 -3 -17 8 -28 25 -10 17
-21 31 -25 31 -21 -3 -26 1 -26 19 0 12 -9 22 -24 26 -15 3 -27 16 -30 30 -4
14 -11 22 -16 19 -6 -4 -18 7 -28 24 -9 17 -24 31 -33 31 -10 0 -20 11 -23 25
-4 16 -13 25 -25 25 -11 0 -21 9 -25 24 -3 13 -15 26 -27 29 -11 3 -23 15 -26
26 -3 12 -13 21 -23 21 -11 0 -20 10 -24 25 -4 16 -13 25 -25 25 -12 0 -21 9
-25 24 -3 14 -16 26 -31 30 -14 4 -24 10 -24 14 3 20 -3 30 -22 35 -11 3 -23
15 -26 26 -3 12 -13 21 -23 21 -10 0 -20 10 -24 24 -3 13 -15 26 -27 29 -11 3
-23 14 -26 25 -3 11 -14 22 -25 25 -11 3 -22 14 -25 25 -3 11 -14 22 -25 25
-11 3 -22 14 -25 25 -3 11 -14 22 -25 25 -11 3 -22 14 -25 25 -3 11 -14 22
-25 25 -11 3 -22 14 -25 25 -3 11 -14 22 -25 25 -11 3 -22 15 -25 26 -3 12
-14 21 -24 21 -12 0 -19 7 -19 20 0 13 -11 25 -27 33 -16 6 -384 368 -819 803
-705 706 -782 780 -712 687z m1525 -1869 c-3 -3 -12 -4 -19 -1 -8 3 -5 6 6 6
11 1 17 -2 13 -5z m-377 -89 c0 -2 -10 -9 -22 -15 -22 -11 -22 -10 -4 4 21 17
26 19 26 11z m-443 -197 c-3 -8 -6 -5 -6 6 -1 11 2 17 5 13 3 -3 4 -12 1 -19z
m280 -225 c-3 -10 -5 -4 -5 12 0 17 2 24 5 18 2 -7 2 -21 0 -30z m-290 -5 c-3
-8 -6 -5 -6 6 -1 11 2 17 5 13 3 -3 4 -12 1 -19z m290 -80 c-3 -8 -6 -5 -6 6
-1 11 2 17 5 13 3 -3 4 -12 1 -19z m0 -50 c-3 -7 -5 -2 -5 12 0 14 2 19 5 13
2 -7 2 -19 0 -25z m0 -50 c-3 -7 -5 -2 -5 12 0 14 2 19 5 13 2 -7 2 -19 0 -25z
m0 -50 c-3 -7 -5 -2 -5 12 0 14 2 19 5 13 2 -7 2 -19 0 -25z m-280 -60 c-3 -8
-6 -5 -6 6 -1 11 2 17 5 13 3 -3 4 -12 1 -19z m270 -90 c-3 -8 -6 -5 -6 6 -1
11 2 17 5 13 3 -3 4 -12 1 -19z m-547 -922 c0 -2 -7 -7 -16 -10 -8 -3 -12 -2
-9 4 6 10 25 14 25 6z"/>
<path d="M5628 5385 c-184 -50 -323 -174 -393 -350 -34 -83 -45 -232 -25 -324
46 -215 224 -389 445 -436 88 -18 132 -18 220 0 211 44 385 209 440 415 19 72
19 211 0 284 -53 203 -231 373 -433 415 -70 14 -195 13 -254 -4z"/>
<path d="M4170 5065 c-301 -68 -478 -370 -386 -660 111 -348 524 -477 814
-253 190 147 248 428 135 652 -31 62 -113 149 -179 192 -107 69 -262 97 -384
69z m243 -194 c118 -51 199 -174 200 -305 0 -101 -23 -164 -89 -235 -75 -82
-132 -106 -249 -106 -78 0 -97 4 -146 28 -111 54 -179 157 -187 283 -11 166
80 297 241 350 56 19 169 11 230 -15z"/>
<path d="M2695 4845 c-84 -17 -193 -70 -257 -126 -66 -56 -143 -176 -170 -262
-62 -202 0 -440 153 -581 226 -210 569 -206 785 9 106 106 160 218 171 354 21
270 -150 520 -406 595 -79 23 -194 28 -276 11z"/>
<path d="M113 4430 c0 -41 2 -58 4 -37 2 20 2 54 0 75 -2 20 -4 3 -4 -38z"/>
<path d="M5172 3979 c-120 -21 -212 -68 -303 -154 -116 -110 -174 -245 -173
-405 0 -164 52 -288 169 -405 171 -171 423 -213 645 -108 100 48 213 159 258
254 84 176 84 333 0 508 -69 144 -203 256 -353 295 -81 20 -179 27 -243 15z"/>
<path d="M3720 3710 c-191 -23 -364 -145 -445 -315 -40 -85 -55 -152 -55 -250
0 -161 52 -288 165 -400 113 -112 243 -165 405 -165 183 0 349 86 457 237 67
94 94 176 100 298 6 117 -10 195 -60 294 -101 202 -339 328 -567 301z"/>
<path d="M4393 113 c20 -2 54 -2 75 0 20 2 3 4 -38 4 -41 0 -58 -2 -37 -4z"/>
</g>
</svg>
